<svg width="32" height="30" viewBox="0 0 32 30" fill="none" xmlns="http://www.w3.org/2000/svg">
<ellipse cx="15.7895" cy="15" rx="15.7895" ry="15" fill="#82DD63"/>
<g clip-path="url(#clip0_583_42)">
<path d="M13.0378 20.0125H15.7605M8.5 8.41V22.69C8.5 23.1634 8.69124 23.6174 9.03164 23.9522C9.37204 24.2869 9.83373 24.475 10.3151 24.475H21.2059C21.6873 24.475 22.149 24.2869 22.4894 23.9522C22.8298 23.6174 23.0211 23.1634 23.0211 22.69V12.2852C23.021 12.0474 22.9727 11.812 22.8789 11.5929C22.785 11.3737 22.6476 11.1752 22.4747 11.009L18.4451 7.13372C18.106 6.80766 17.6506 6.62506 17.1763 6.625H10.3151C9.83373 6.625 9.37204 6.81306 9.03164 7.14781C8.69124 7.48257 8.5 7.93659 8.5 8.41V8.41ZM13.0378 16.4425H18.4832H13.0378Z" stroke="#F8F8F8" stroke-width="2" stroke-linecap="round" stroke-linejoin="round"/>
<path d="M17.5754 6.625V10.195C17.5754 10.6684 17.7667 11.1224 18.1071 11.4572C18.4475 11.7919 18.9092 11.98 19.3906 11.98H23.0208" stroke="#F8F8F8" stroke-width="2" stroke-linejoin="round"/>
</g>
<defs>
<clipPath id="clip0_583_42">
<rect width="21" height="21" fill="white" transform="translate(5 4)"/>
</clipPath>
</defs>
</svg>
