<svg width="24" height="24" viewBox="0 0 24 24" fill="none" xmlns="http://www.w3.org/2000/svg">
<circle cx="12" cy="12" r="12" fill="white"/>
<path d="M12 0C5.364 0 0 5.364 0 12C0 18.636 5.364 24 12 24C18.636 24 24 18.636 24 12C24 5.364 18.636 0 12 0ZM17.16 17.16C17.049 17.2712 16.9171 17.3595 16.772 17.4197C16.6268 17.4799 16.4712 17.5109 16.314 17.5109C16.1568 17.5109 16.0012 17.4799 15.8561 17.4197C15.7109 17.3595 15.579 17.2712 15.468 17.16L12 13.692L8.532 17.16C8.30763 17.3844 8.00331 17.5104 7.686 17.5104C7.36869 17.5104 7.06437 17.3844 6.84 17.16C6.61563 16.9356 6.48958 16.6313 6.48958 16.314C6.48958 16.1569 6.52052 16.0013 6.58065 15.8561C6.64077 15.711 6.7289 15.5791 6.84 15.468L10.308 12L6.84 8.532C6.61563 8.30763 6.48958 8.00331 6.48958 7.686C6.48958 7.36869 6.61563 7.06437 6.84 6.84C7.06437 6.61563 7.36869 6.48958 7.686 6.48958C8.00331 6.48958 8.30763 6.61563 8.532 6.84L12 10.308L15.468 6.84C15.5791 6.7289 15.711 6.64077 15.8561 6.58065C16.0013 6.52052 16.1569 6.48958 16.314 6.48958C16.4711 6.48958 16.6267 6.52052 16.7719 6.58065C16.917 6.64077 17.0489 6.7289 17.16 6.84C17.2711 6.9511 17.3592 7.08299 17.4194 7.22815C17.4795 7.37331 17.5104 7.52888 17.5104 7.686C17.5104 7.84312 17.4795 7.99869 17.4194 8.14385C17.3592 8.28901 17.2711 8.4209 17.16 8.532L13.692 12L17.16 15.468C17.616 15.924 17.616 16.692 17.16 17.16Z" fill="#F24E1E"/>
</svg>
