<svg width="24" height="24" viewBox="0 0 12 12" fill="none" xmlns="http://www.w3.org/2000/svg">
<circle cx="6" cy="6" r="6" fill="#60BE5D"/>
<path d="M8.2275 3.72751C8.33315 3.62692 8.47374 3.57132 8.61961 3.57242C8.76548 3.57352 8.90522 3.63125 9.00933 3.73342C9.11345 3.83559 9.1738 3.97421 9.17766 4.12004C9.18151 4.26586 9.12857 4.40748 9.03 4.51501L6.0375 8.25751C5.98604 8.31293 5.92394 8.35741 5.8549 8.38828C5.78586 8.41915 5.7113 8.43579 5.63569 8.43719C5.56007 8.43859 5.48495 8.42472 5.41481 8.39643C5.34468 8.36813 5.28097 8.32599 5.2275 8.2725L3.243 6.288C3.18773 6.23651 3.1434 6.17441 3.11266 6.10541C3.08192 6.03641 3.06538 5.96192 3.06405 5.8864C3.06272 5.81087 3.07661 5.73585 3.1049 5.66581C3.13319 5.59577 3.1753 5.53214 3.22872 5.47873C3.28213 5.42531 3.34576 5.3832 3.4158 5.35491C3.48584 5.32662 3.56086 5.31273 3.63639 5.31406C3.71192 5.31539 3.7864 5.33193 3.8554 5.36267C3.9244 5.39341 3.9865 5.43774 4.038 5.49301L5.6085 7.06275L8.21325 3.74401C8.21794 3.73823 8.22294 3.73272 8.22825 3.72751H8.2275Z" fill="white"/>
</svg>
