<svg width="30" height="30" viewBox="0 0 30 30" fill="none" xmlns="http://www.w3.org/2000/svg">
<circle cx="15" cy="15" r="15" fill="#A763DD"/>
<path d="M15.4092 16.6998C15.1746 16.6998 14.9843 16.2653 14.9843 15.7299C14.9843 15.1944 15.1746 14.7599 15.4092 14.7599C15.6438 14.7599 15.8342 15.1944 15.8342 15.7299C15.8342 16.2653 15.6438 16.6998 15.4092 16.6998Z" fill="white"/>
<path d="M17.8059 7.11733C17.8599 7.16252 17.9031 7.21836 17.9327 7.28107C17.9623 7.34378 17.9776 7.41188 17.9775 7.48078V7.96153H18.4764C18.8733 7.96153 19.254 8.11349 19.5347 8.38397C19.8154 8.65444 19.973 9.02129 19.973 9.4038V21.4227H21.4697C21.602 21.4227 21.7289 21.4734 21.8224 21.5635C21.916 21.6537 21.9685 21.776 21.9685 21.9035C21.9685 22.031 21.916 22.1533 21.8224 22.2434C21.7289 22.3336 21.602 22.3842 21.4697 22.3842H8.49888C8.36657 22.3842 8.23967 22.3336 8.14612 22.2434C8.05256 22.1533 8 22.031 8 21.9035C8 21.776 8.05256 21.6537 8.14612 21.5635C8.23967 21.4734 8.36657 21.4227 8.49888 21.4227H9.99551V8.44229C9.99552 8.32646 10.0389 8.21453 10.1178 8.12708C10.1966 8.03964 10.3055 7.98256 10.4245 7.96634L17.4088 7.00483C17.4795 6.9951 17.5515 7.00011 17.62 7.01952C17.6885 7.03892 17.7519 7.07228 17.8059 7.11733ZM18.4764 8.92305H17.9775V21.4227H18.9753V9.4038C18.9753 9.2763 18.9227 9.15402 18.8292 9.06386C18.7356 8.9737 18.6087 8.92305 18.4764 8.92305ZM10.9933 8.85959V21.4227H16.9798V8.03557L10.9933 8.85959Z" fill="white"/>
</svg>
