<svg width="33" height="33" viewBox="0 0 33 33" fill="none" xmlns="http://www.w3.org/2000/svg">
<circle cx="16.5" cy="16.5" r="16.5" fill="#82DD63"/>
<path d="M23.5 21.75V24H9.5V21.75V21.75C9.12237 20.7115 7.68555 20.6289 7.19137 21.6173L7.125 21.75V24.875L7.13125 24.8711C7.13053 25.0761 7.17022 25.2793 7.24805 25.469C7.32588 25.6587 7.44032 25.8313 7.58484 25.9767C7.72937 26.1222 7.90113 26.2378 8.09033 26.3168C8.27953 26.3959 8.48245 26.4369 8.6875 26.4375H24.3125C24.7269 26.4375 25.1243 26.2729 25.4174 25.9799C25.7104 25.6868 25.875 25.2894 25.875 24.875V21.75L25.8086 21.6173C25.3145 20.6289 23.8776 20.7115 23.5 21.75V21.75ZM8.09033 12L8.06552 12.0771C7.68521 13.259 8.83745 14.3578 10 13.9219V13.9219L15.0509 8.5V20V20C15.6423 21.2243 17.3919 21.2161 18 20V20V8.5L23.2117 13.9219V13.9219C24.2899 14.3583 25.3962 13.3584 25.0705 12.2417L25 12L16.5903 3.8125L8.09033 12Z" fill="white"/>
</svg>
