<svg width="33" height="33" viewBox="0 0 33 33" fill="none" xmlns="http://www.w3.org/2000/svg">
<circle cx="16.5" cy="16.5" r="16.5" fill="#FF4141" fill-opacity="0.5"/>
<g clip-path="url(#clip0_702_5)">
<path d="M23.5089 6.28116C26.5752 8.55877 28.5708 12.2839 28.5708 16.5C28.5708 23.424 23.1779 29.037 16.5243 29.0522C9.88054 29.0674 4.43894 23.4341 4.42921 16.5203C4.42434 12.3042 6.41992 8.56889 9.48142 6.28622C10.0509 5.86613 10.8443 6.04328 11.185 6.67594L11.954 8.09818C12.2412 8.62963 12.1049 9.30278 11.6327 9.6672C9.61284 11.2261 8.32301 13.696 8.32301 16.495C8.31815 21.1666 11.9491 25.0031 16.5 25.0031C20.9584 25.0031 24.7062 21.2476 24.677 16.4443C24.6624 13.8226 23.4748 11.2919 21.3624 9.66214C20.8903 9.29772 20.7589 8.62456 21.046 8.09818L21.8151 6.67594C22.1558 6.04834 22.9443 5.86107 23.5089 6.28116ZM18.4469 16.9049V4.75769C18.4469 4.08453 17.9261 3.54297 17.2788 3.54297H15.7212C15.0739 3.54297 14.5531 4.08453 14.5531 4.75769V16.9049C14.5531 17.5781 15.0739 18.1197 15.7212 18.1197H17.2788C17.9261 18.1197 18.4469 17.5781 18.4469 16.9049Z" fill="#FFF3F3"/>
</g>
<defs>
<clipPath id="clip0_702_5">
<rect width="24.9204" height="25.9141" fill="white" transform="translate(4.03979 3.54297)"/>
</clipPath>
</defs>
</svg>
