<svg width="32" height="31" viewBox="0 0 32 31" fill="none" xmlns="http://www.w3.org/2000/svg">
<ellipse cx="15.9523" cy="15.5" rx="15.7895" ry="15" fill="#DD6363"/>
<g clip-path="url(#clip0_7_12)">
<path d="M9.27239 10.9741V22.612C9.27239 23.2521 9.8031 23.7758 10.4518 23.7758H21.0661C21.7147 23.7758 22.2455 23.2521 22.2455 22.612V10.9741H9.27239ZM12.8105 21.4483H11.6311V13.3017H12.8105V21.4483ZM15.1692 21.4483H13.9899V13.3017H15.1692V21.4483ZM17.528 21.4483H16.3486V13.3017H17.528V21.4483ZM19.8867 21.4483H18.7073V13.3017H19.8867V21.4483ZM22.5403 7.48274H18.7073V6.028C18.7064 5.79679 18.6129 5.57531 18.4472 5.41182C18.2816 5.24833 18.0571 5.15607 17.8228 5.15515H13.695C13.4607 5.15607 13.2363 5.24833 13.0706 5.41182C12.9049 5.57531 12.8114 5.79679 12.8105 6.028V7.48274H8.97754C8.74314 7.48335 8.51852 7.57551 8.35278 7.73907C8.18703 7.90262 8.09364 8.12428 8.09302 8.35558V9.81032H23.4248V8.35558C23.4242 8.12428 23.3308 7.90262 23.1651 7.73907C22.9993 7.57551 22.7747 7.48335 22.5403 7.48274ZM17.528 7.48274H13.9899V6.33407H17.528V7.48274Z" fill="white"/>
</g>
<defs>
<clipPath id="clip0_7_12">
<rect width="21.1473" height="20.6897" fill="white" transform="translate(5.44962 5.15515)"/>
</clipPath>
</defs>
</svg>
