<svg width="25" height="24" viewBox="0 0 25 24" fill="none" xmlns="http://www.w3.org/2000/svg">
<ellipse cx="12.6698" cy="11.6522" rx="11.7023" ry="11.6522" fill="#DD6363"/>
<g clip-path="url(#clip0_506_41)">
<path d="M7.71906 8.13643V17.1769C7.71906 17.6741 8.1124 18.081 8.59314 18.081H16.4599C16.9407 18.081 17.334 17.6741 17.334 17.1769V8.13643H7.71906ZM10.3413 16.2729H9.46723V9.94453H10.3413V16.2729ZM12.0895 16.2729H11.2154V9.94453H12.0895V16.2729ZM13.8377 16.2729H12.9636V9.94453H13.8377V16.2729ZM15.5858 16.2729H14.7118V9.94453H15.5858V16.2729ZM17.5525 5.42429H14.7118V4.29423C14.7111 4.11462 14.6418 3.94257 14.519 3.81557C14.3962 3.68857 14.2298 3.61691 14.0562 3.61619H10.9969C10.8232 3.61691 10.6569 3.68857 10.5341 3.81557C10.4113 3.94257 10.342 4.11462 10.3413 4.29423V5.42429H7.50054C7.32681 5.42476 7.16033 5.49635 7.03749 5.62341C6.91465 5.75046 6.84543 5.92264 6.84497 6.10232V7.23238H18.2081V6.10232C18.2076 5.92264 18.1384 5.75046 18.0156 5.62341C17.8927 5.49635 17.7263 5.42476 17.5525 5.42429ZM13.8377 5.42429H11.2154V4.53199H13.8377V5.42429Z" fill="white"/>
</g>
<defs>
<clipPath id="clip0_506_41">
<rect width="15.6733" height="16.072" fill="white" transform="translate(4.8858 3.61619)"/>
</clipPath>
</defs>
</svg>
